<mxfile host="Electron" agent="Mozilla/5.0 (Windows NT 10.0; Win64; x64) AppleWebKit/537.36 (KHTML, like Gecko) draw.io/24.7.17 Chrome/128.0.6613.36 Electron/32.0.1 Safari/537.36" version="24.7.17">
  <diagram name="Page-1" id="rFIDhMrQtUVqV9h6Crtd">
    <mxGraphModel dx="2607" dy="1607" grid="1" gridSize="10" guides="1" tooltips="1" connect="1" arrows="1" fold="1" page="1" pageScale="1" pageWidth="827" pageHeight="1169" math="0" shadow="0">
      <root>
        <mxCell id="0" />
        <mxCell id="1" parent="0" />
        <mxCell id="ljLbS3r0QzYFnTC3O5jr-110" value="" style="rounded=1;whiteSpace=wrap;html=1;shadow=0;glass=0;strokeColor=#b85450;align=left;verticalAlign=middle;spacingLeft=4;spacingRight=4;fontFamily=Helvetica;fontSize=12;fontStyle=0;labelBorderColor=none;labelBackgroundColor=default;fillColor=none;fillStyle=auto;strokeWidth=3;fontColor=default;" parent="1" vertex="1">
          <mxGeometry x="1740" y="320" width="360" height="720" as="geometry" />
        </mxCell>
        <mxCell id="ljLbS3r0QzYFnTC3O5jr-111" value="" style="rounded=1;whiteSpace=wrap;html=1;shadow=0;glass=0;strokeColor=#b85450;align=left;verticalAlign=middle;spacingLeft=4;spacingRight=4;fontFamily=Helvetica;fontSize=12;fontStyle=0;labelBorderColor=none;labelBackgroundColor=default;fillColor=none;fillStyle=auto;strokeWidth=3;fontColor=default;" parent="1" vertex="1">
          <mxGeometry x="430" y="315" width="1210" height="875" as="geometry" />
        </mxCell>
        <mxCell id="ljLbS3r0QzYFnTC3O5jr-1" value="Page" style="rounded=0;whiteSpace=wrap;html=1;fillColor=#d5e8d4;strokeColor=#82b366;" parent="1" vertex="1">
          <mxGeometry x="715" y="515" width="120" height="60" as="geometry" />
        </mxCell>
        <mxCell id="ljLbS3r0QzYFnTC3O5jr-60" style="edgeStyle=none;shape=connector;rounded=0;orthogonalLoop=1;jettySize=auto;html=1;exitX=1;exitY=1;exitDx=0;exitDy=0;entryX=0.25;entryY=0;entryDx=0;entryDy=0;strokeColor=default;align=center;verticalAlign=middle;fontFamily=Helvetica;fontSize=11;fontColor=default;labelBackgroundColor=default;endArrow=none;endFill=0;" parent="1" source="ljLbS3r0QzYFnTC3O5jr-3" target="ljLbS3r0QzYFnTC3O5jr-1" edge="1">
          <mxGeometry relative="1" as="geometry" />
        </mxCell>
        <mxCell id="ljLbS3r0QzYFnTC3O5jr-3" value="totalcount" style="ellipse;whiteSpace=wrap;html=1;fillColor=#dae8fc;strokeColor=#6c8ebf;" parent="1" vertex="1">
          <mxGeometry x="630" y="385" width="90" height="50" as="geometry" />
        </mxCell>
        <mxCell id="ljLbS3r0QzYFnTC3O5jr-6" value="SearchData" style="rounded=0;whiteSpace=wrap;html=1;fillColor=#d5e8d4;strokeColor=#82b366;" parent="1" vertex="1">
          <mxGeometry x="1212" y="515" width="120" height="60" as="geometry" />
        </mxCell>
        <mxCell id="ljLbS3r0QzYFnTC3O5jr-57" style="edgeStyle=none;shape=connector;rounded=0;orthogonalLoop=1;jettySize=auto;html=1;exitX=0.5;exitY=1;exitDx=0;exitDy=0;entryX=0.5;entryY=0;entryDx=0;entryDy=0;strokeColor=default;align=center;verticalAlign=middle;fontFamily=Helvetica;fontSize=11;fontColor=default;labelBackgroundColor=default;endArrow=none;endFill=0;" parent="1" source="ljLbS3r0QzYFnTC3O5jr-10" target="ljLbS3r0QzYFnTC3O5jr-1" edge="1">
          <mxGeometry relative="1" as="geometry" />
        </mxCell>
        <mxCell id="ljLbS3r0QzYFnTC3O5jr-10" value="&lt;span style=&quot;color: rgb(0, 0, 0); font-family: Helvetica; font-size: 12px; font-style: normal; font-variant-ligatures: normal; font-variant-caps: normal; font-weight: 400; letter-spacing: normal; orphans: 2; text-align: center; text-indent: 0px; text-transform: none; widows: 2; word-spacing: 0px; -webkit-text-stroke-width: 0px; white-space: normal; text-decoration-thickness: initial; text-decoration-style: initial; text-decoration-color: initial; float: none; display: inline !important;&quot;&gt;success&lt;/span&gt;" style="ellipse;whiteSpace=wrap;html=1;fillColor=#dae8fc;strokeColor=#6c8ebf;labelBackgroundColor=none;" parent="1" vertex="1">
          <mxGeometry x="730" y="380" width="90" height="50" as="geometry" />
        </mxCell>
        <mxCell id="ljLbS3r0QzYFnTC3O5jr-59" style="edgeStyle=none;shape=connector;rounded=0;orthogonalLoop=1;jettySize=auto;html=1;exitX=1;exitY=1;exitDx=0;exitDy=0;entryX=0;entryY=0;entryDx=0;entryDy=0;strokeColor=default;align=center;verticalAlign=middle;fontFamily=Helvetica;fontSize=11;fontColor=default;labelBackgroundColor=default;endArrow=none;endFill=0;" parent="1" source="ljLbS3r0QzYFnTC3O5jr-11" target="ljLbS3r0QzYFnTC3O5jr-1" edge="1">
          <mxGeometry relative="1" as="geometry" />
        </mxCell>
        <mxCell id="ljLbS3r0QzYFnTC3O5jr-11" value="pagesize" style="ellipse;whiteSpace=wrap;html=1;fillColor=#dae8fc;strokeColor=#6c8ebf;fontStyle=0" parent="1" vertex="1">
          <mxGeometry x="570" y="455" width="90" height="50" as="geometry" />
        </mxCell>
        <mxCell id="ljLbS3r0QzYFnTC3O5jr-58" style="edgeStyle=none;shape=connector;rounded=0;orthogonalLoop=1;jettySize=auto;html=1;exitX=1;exitY=0.5;exitDx=0;exitDy=0;entryX=0;entryY=0.5;entryDx=0;entryDy=0;strokeColor=default;align=center;verticalAlign=middle;fontFamily=Helvetica;fontSize=11;fontColor=default;labelBackgroundColor=default;endArrow=none;endFill=0;" parent="1" source="ljLbS3r0QzYFnTC3O5jr-12" target="ljLbS3r0QzYFnTC3O5jr-1" edge="1">
          <mxGeometry relative="1" as="geometry" />
        </mxCell>
        <mxCell id="ljLbS3r0QzYFnTC3O5jr-12" value="start" style="ellipse;whiteSpace=wrap;html=1;fillColor=#dae8fc;strokeColor=#6c8ebf;fontStyle=0" parent="1" vertex="1">
          <mxGeometry x="550" y="520" width="90" height="50" as="geometry" />
        </mxCell>
        <mxCell id="ljLbS3r0QzYFnTC3O5jr-70" style="edgeStyle=none;shape=connector;rounded=0;orthogonalLoop=1;jettySize=auto;html=1;exitX=0.5;exitY=1;exitDx=0;exitDy=0;entryX=0.5;entryY=0;entryDx=0;entryDy=0;strokeColor=default;align=center;verticalAlign=middle;fontFamily=Helvetica;fontSize=11;fontColor=default;labelBackgroundColor=default;endArrow=none;endFill=0;" parent="1" source="ljLbS3r0QzYFnTC3O5jr-13" target="ljLbS3r0QzYFnTC3O5jr-6" edge="1">
          <mxGeometry relative="1" as="geometry" />
        </mxCell>
        <mxCell id="ljLbS3r0QzYFnTC3O5jr-13" value="query" style="ellipse;whiteSpace=wrap;html=1;fillColor=#dae8fc;strokeColor=#6c8ebf;labelBackgroundColor=none;" parent="1" vertex="1">
          <mxGeometry x="1227" y="395" width="90" height="50" as="geometry" />
        </mxCell>
        <mxCell id="ljLbS3r0QzYFnTC3O5jr-67" style="edgeStyle=none;shape=connector;rounded=0;orthogonalLoop=1;jettySize=auto;html=1;exitX=0;exitY=0.5;exitDx=0;exitDy=0;entryX=1;entryY=0.75;entryDx=0;entryDy=0;strokeColor=default;align=center;verticalAlign=middle;fontFamily=Helvetica;fontSize=11;fontColor=default;labelBackgroundColor=default;endArrow=none;endFill=0;" parent="1" source="ljLbS3r0QzYFnTC3O5jr-14" target="ljLbS3r0QzYFnTC3O5jr-6" edge="1">
          <mxGeometry relative="1" as="geometry" />
        </mxCell>
        <mxCell id="ljLbS3r0QzYFnTC3O5jr-14" value="total_count" style="ellipse;whiteSpace=wrap;html=1;fillColor=#dae8fc;strokeColor=#6c8ebf;labelBackgroundColor=none;" parent="1" vertex="1">
          <mxGeometry x="1420" y="540" width="90" height="50" as="geometry" />
        </mxCell>
        <mxCell id="ljLbS3r0QzYFnTC3O5jr-68" style="edgeStyle=none;shape=connector;rounded=0;orthogonalLoop=1;jettySize=auto;html=1;exitX=0;exitY=0.5;exitDx=0;exitDy=0;entryX=1;entryY=0.25;entryDx=0;entryDy=0;strokeColor=default;align=center;verticalAlign=middle;fontFamily=Helvetica;fontSize=11;fontColor=default;labelBackgroundColor=default;endArrow=none;endFill=0;" parent="1" source="ljLbS3r0QzYFnTC3O5jr-15" target="ljLbS3r0QzYFnTC3O5jr-6" edge="1">
          <mxGeometry relative="1" as="geometry" />
        </mxCell>
        <mxCell id="ljLbS3r0QzYFnTC3O5jr-15" value="&lt;span style=&quot;color: rgb(0, 0, 0); font-family: Helvetica; font-size: 12px; font-style: normal; font-variant-ligatures: normal; font-variant-caps: normal; font-weight: 400; letter-spacing: normal; orphans: 2; text-align: center; text-indent: 0px; text-transform: none; widows: 2; word-spacing: 0px; -webkit-text-stroke-width: 0px; white-space: normal; text-decoration-thickness: initial; text-decoration-style: initial; text-decoration-color: initial; float: none; display: inline !important;&quot;&gt;pagesize&lt;/span&gt;" style="ellipse;whiteSpace=wrap;html=1;fillColor=#dae8fc;strokeColor=#6c8ebf;labelBackgroundColor=none;" parent="1" vertex="1">
          <mxGeometry x="1420" y="475" width="90" height="50" as="geometry" />
        </mxCell>
        <mxCell id="ljLbS3r0QzYFnTC3O5jr-69" style="edgeStyle=none;shape=connector;rounded=0;orthogonalLoop=1;jettySize=auto;html=1;exitX=0;exitY=1;exitDx=0;exitDy=0;entryX=0.75;entryY=0;entryDx=0;entryDy=0;strokeColor=default;align=center;verticalAlign=middle;fontFamily=Helvetica;fontSize=11;fontColor=default;labelBackgroundColor=default;endArrow=none;endFill=0;" parent="1" source="ljLbS3r0QzYFnTC3O5jr-16" target="ljLbS3r0QzYFnTC3O5jr-6" edge="1">
          <mxGeometry relative="1" as="geometry" />
        </mxCell>
        <mxCell id="ljLbS3r0QzYFnTC3O5jr-16" value="search_description" style="ellipse;whiteSpace=wrap;html=1;fillColor=#dae8fc;strokeColor=#6c8ebf;labelBackgroundColor=none;" parent="1" vertex="1">
          <mxGeometry x="1320" y="430" width="130" height="50" as="geometry" />
        </mxCell>
        <mxCell id="ljLbS3r0QzYFnTC3O5jr-71" style="edgeStyle=none;shape=connector;rounded=0;orthogonalLoop=1;jettySize=auto;html=1;exitX=0;exitY=0;exitDx=0;exitDy=0;entryX=1;entryY=1;entryDx=0;entryDy=0;strokeColor=default;align=center;verticalAlign=middle;fontFamily=Helvetica;fontSize=11;fontColor=default;labelBackgroundColor=default;endArrow=none;endFill=0;" parent="1" source="ljLbS3r0QzYFnTC3O5jr-17" target="ljLbS3r0QzYFnTC3O5jr-6" edge="1">
          <mxGeometry relative="1" as="geometry" />
        </mxCell>
        <mxCell id="ljLbS3r0QzYFnTC3O5jr-17" value="prefix" style="ellipse;whiteSpace=wrap;html=1;fillColor=#dae8fc;strokeColor=#6c8ebf;labelBackgroundColor=none;" parent="1" vertex="1">
          <mxGeometry x="1350" y="595" width="90" height="50" as="geometry" />
        </mxCell>
        <mxCell id="ljLbS3r0QzYFnTC3O5jr-72" style="edgeStyle=none;shape=connector;rounded=0;orthogonalLoop=1;jettySize=auto;html=1;exitX=0.5;exitY=0;exitDx=0;exitDy=0;entryX=0.75;entryY=1;entryDx=0;entryDy=0;strokeColor=default;align=center;verticalAlign=middle;fontFamily=Helvetica;fontSize=11;fontColor=default;labelBackgroundColor=default;endArrow=none;endFill=0;" parent="1" source="ljLbS3r0QzYFnTC3O5jr-18" target="ljLbS3r0QzYFnTC3O5jr-6" edge="1">
          <mxGeometry relative="1" as="geometry" />
        </mxCell>
        <mxCell id="ljLbS3r0QzYFnTC3O5jr-18" value="class_prefix" style="ellipse;whiteSpace=wrap;html=1;fillColor=#dae8fc;strokeColor=#6c8ebf;labelBackgroundColor=none;" parent="1" vertex="1">
          <mxGeometry x="1260" y="635" width="90" height="50" as="geometry" />
        </mxCell>
        <mxCell id="q_65ye72RjT9QAtNMbLg-4" style="edgeStyle=orthogonalEdgeStyle;rounded=1;orthogonalLoop=1;jettySize=auto;html=1;exitX=0;exitY=0.5;exitDx=0;exitDy=0;entryX=0;entryY=0.5;entryDx=0;entryDy=0;curved=0;endArrow=none;endFill=0;" parent="1" source="ljLbS3r0QzYFnTC3O5jr-19" target="q_65ye72RjT9QAtNMbLg-2" edge="1">
          <mxGeometry relative="1" as="geometry">
            <Array as="points">
              <mxPoint x="500" y="880" />
              <mxPoint x="500" y="160" />
            </Array>
          </mxGeometry>
        </mxCell>
        <mxCell id="ljLbS3r0QzYFnTC3O5jr-19" value="item" style="rounded=0;whiteSpace=wrap;html=1;fillColor=#d5e8d4;strokeColor=#82b366;" parent="1" vertex="1">
          <mxGeometry x="715" y="850" width="120" height="60" as="geometry" />
        </mxCell>
        <mxCell id="ljLbS3r0QzYFnTC3O5jr-56" style="edgeStyle=none;shape=connector;rounded=0;orthogonalLoop=1;jettySize=auto;html=1;exitX=1;exitY=1;exitDx=0;exitDy=0;entryX=0.25;entryY=0;entryDx=0;entryDy=0;strokeColor=default;align=center;verticalAlign=middle;fontFamily=Helvetica;fontSize=11;fontColor=default;labelBackgroundColor=default;endArrow=none;endFill=0;" parent="1" source="ljLbS3r0QzYFnTC3O5jr-20" target="ljLbS3r0QzYFnTC3O5jr-19" edge="1">
          <mxGeometry relative="1" as="geometry" />
        </mxCell>
        <mxCell id="ljLbS3r0QzYFnTC3O5jr-20" value="name" style="ellipse;whiteSpace=wrap;html=1;fillColor=#dae8fc;strokeColor=#6c8ebf;" parent="1" vertex="1">
          <mxGeometry x="640" y="760" width="90" height="50" as="geometry" />
        </mxCell>
        <mxCell id="ljLbS3r0QzYFnTC3O5jr-55" style="edgeStyle=none;shape=connector;rounded=0;orthogonalLoop=1;jettySize=auto;html=1;exitX=1;exitY=0.5;exitDx=0;exitDy=0;entryX=0;entryY=0;entryDx=0;entryDy=0;strokeColor=default;align=center;verticalAlign=middle;fontFamily=Helvetica;fontSize=11;fontColor=default;labelBackgroundColor=default;endArrow=none;endFill=0;" parent="1" source="ljLbS3r0QzYFnTC3O5jr-21" target="ljLbS3r0QzYFnTC3O5jr-19" edge="1">
          <mxGeometry relative="1" as="geometry" />
        </mxCell>
        <mxCell id="ljLbS3r0QzYFnTC3O5jr-21" value="hash_name" style="ellipse;whiteSpace=wrap;html=1;fillColor=#dae8fc;strokeColor=#6c8ebf;fontStyle=0" parent="1" vertex="1">
          <mxGeometry x="560" y="815" width="90" height="50" as="geometry" />
        </mxCell>
        <mxCell id="ljLbS3r0QzYFnTC3O5jr-51" style="edgeStyle=none;shape=connector;rounded=0;orthogonalLoop=1;jettySize=auto;html=1;exitX=0.5;exitY=0;exitDx=0;exitDy=0;entryX=0.5;entryY=1;entryDx=0;entryDy=0;strokeColor=default;align=center;verticalAlign=middle;fontFamily=Helvetica;fontSize=11;fontColor=default;labelBackgroundColor=default;endArrow=none;endFill=0;" parent="1" source="ljLbS3r0QzYFnTC3O5jr-23" target="ljLbS3r0QzYFnTC3O5jr-19" edge="1">
          <mxGeometry relative="1" as="geometry" />
        </mxCell>
        <mxCell id="ljLbS3r0QzYFnTC3O5jr-23" value="app_icon" style="ellipse;whiteSpace=wrap;html=1;fillColor=#dae8fc;strokeColor=#6c8ebf;" parent="1" vertex="1">
          <mxGeometry x="730" y="1034" width="90" height="50" as="geometry" />
        </mxCell>
        <mxCell id="ljLbS3r0QzYFnTC3O5jr-52" style="edgeStyle=none;shape=connector;rounded=0;orthogonalLoop=1;jettySize=auto;html=1;exitX=1;exitY=0;exitDx=0;exitDy=0;entryX=0.25;entryY=1;entryDx=0;entryDy=0;strokeColor=default;align=center;verticalAlign=middle;fontFamily=Helvetica;fontSize=11;fontColor=default;labelBackgroundColor=default;endArrow=none;endFill=0;" parent="1" source="ljLbS3r0QzYFnTC3O5jr-24" target="ljLbS3r0QzYFnTC3O5jr-19" edge="1">
          <mxGeometry relative="1" as="geometry" />
        </mxCell>
        <mxCell id="ljLbS3r0QzYFnTC3O5jr-24" value="sell_price_text" style="ellipse;whiteSpace=wrap;html=1;fillColor=#dae8fc;strokeColor=#6c8ebf;" parent="1" vertex="1">
          <mxGeometry x="640" y="1000" width="90" height="50" as="geometry" />
        </mxCell>
        <mxCell id="ljLbS3r0QzYFnTC3O5jr-53" style="edgeStyle=none;shape=connector;rounded=0;orthogonalLoop=1;jettySize=auto;html=1;exitX=1;exitY=0;exitDx=0;exitDy=0;entryX=0;entryY=1;entryDx=0;entryDy=0;strokeColor=default;align=center;verticalAlign=middle;fontFamily=Helvetica;fontSize=11;fontColor=default;labelBackgroundColor=default;endArrow=none;endFill=0;" parent="1" source="ljLbS3r0QzYFnTC3O5jr-25" target="ljLbS3r0QzYFnTC3O5jr-19" edge="1">
          <mxGeometry relative="1" as="geometry" />
        </mxCell>
        <mxCell id="ljLbS3r0QzYFnTC3O5jr-25" value="sell_price" style="ellipse;whiteSpace=wrap;html=1;fillColor=#dae8fc;strokeColor=#6c8ebf;" parent="1" vertex="1">
          <mxGeometry x="580" y="950" width="90" height="50" as="geometry" />
        </mxCell>
        <mxCell id="ljLbS3r0QzYFnTC3O5jr-54" style="edgeStyle=none;shape=connector;rounded=0;orthogonalLoop=1;jettySize=auto;html=1;exitX=1;exitY=0.5;exitDx=0;exitDy=0;entryX=0;entryY=0.5;entryDx=0;entryDy=0;strokeColor=default;align=center;verticalAlign=middle;fontFamily=Helvetica;fontSize=11;fontColor=default;labelBackgroundColor=default;endArrow=none;endFill=0;" parent="1" source="ljLbS3r0QzYFnTC3O5jr-26" target="ljLbS3r0QzYFnTC3O5jr-19" edge="1">
          <mxGeometry relative="1" as="geometry" />
        </mxCell>
        <mxCell id="ljLbS3r0QzYFnTC3O5jr-26" value="sell_listings" style="ellipse;whiteSpace=wrap;html=1;fillColor=#dae8fc;strokeColor=#6c8ebf;" parent="1" vertex="1">
          <mxGeometry x="540" y="890" width="90" height="50" as="geometry" />
        </mxCell>
        <mxCell id="ljLbS3r0QzYFnTC3O5jr-50" style="rounded=0;orthogonalLoop=1;jettySize=auto;html=1;exitX=0;exitY=0;exitDx=0;exitDy=0;entryX=0.75;entryY=1;entryDx=0;entryDy=0;endArrow=none;endFill=0;" parent="1" source="ljLbS3r0QzYFnTC3O5jr-27" target="ljLbS3r0QzYFnTC3O5jr-19" edge="1">
          <mxGeometry relative="1" as="geometry" />
        </mxCell>
        <mxCell id="ljLbS3r0QzYFnTC3O5jr-27" value="app_name" style="ellipse;whiteSpace=wrap;html=1;fillColor=#dae8fc;strokeColor=#6c8ebf;" parent="1" vertex="1">
          <mxGeometry x="820" y="995" width="90" height="50" as="geometry" />
        </mxCell>
        <mxCell id="ljLbS3r0QzYFnTC3O5jr-49" style="rounded=0;orthogonalLoop=1;jettySize=auto;html=1;exitX=0;exitY=0;exitDx=0;exitDy=0;entryX=1;entryY=1;entryDx=0;entryDy=0;endArrow=none;endFill=0;" parent="1" source="ljLbS3r0QzYFnTC3O5jr-28" target="ljLbS3r0QzYFnTC3O5jr-19" edge="1">
          <mxGeometry relative="1" as="geometry" />
        </mxCell>
        <mxCell id="ljLbS3r0QzYFnTC3O5jr-28" value="sale_price_text" style="ellipse;whiteSpace=wrap;html=1;fillColor=#dae8fc;strokeColor=#6c8ebf;" parent="1" vertex="1">
          <mxGeometry x="900" y="950" width="90" height="50" as="geometry" />
        </mxCell>
        <mxCell id="ljLbS3r0QzYFnTC3O5jr-29" value="asset_description" style="rounded=0;whiteSpace=wrap;html=1;fillColor=#d5e8d4;strokeColor=#82b366;" parent="1" vertex="1">
          <mxGeometry x="1212" y="850" width="120" height="60" as="geometry" />
        </mxCell>
        <mxCell id="ljLbS3r0QzYFnTC3O5jr-78" style="edgeStyle=none;shape=connector;rounded=0;orthogonalLoop=1;jettySize=auto;html=1;exitX=0.5;exitY=1;exitDx=0;exitDy=0;entryX=0.5;entryY=0;entryDx=0;entryDy=0;strokeColor=default;align=center;verticalAlign=middle;fontFamily=Helvetica;fontSize=11;fontColor=default;labelBackgroundColor=default;endArrow=none;endFill=0;" parent="1" source="ljLbS3r0QzYFnTC3O5jr-30" target="ljLbS3r0QzYFnTC3O5jr-29" edge="1">
          <mxGeometry relative="1" as="geometry" />
        </mxCell>
        <mxCell id="ljLbS3r0QzYFnTC3O5jr-30" value="appid" style="ellipse;whiteSpace=wrap;html=1;fillColor=#dae8fc;strokeColor=#6c8ebf;" parent="1" vertex="1">
          <mxGeometry x="1227" y="715" width="90" height="50" as="geometry" />
        </mxCell>
        <mxCell id="ljLbS3r0QzYFnTC3O5jr-85" style="edgeStyle=none;shape=connector;rounded=0;orthogonalLoop=1;jettySize=auto;html=1;exitX=0.5;exitY=1;exitDx=0;exitDy=0;entryX=0.75;entryY=0;entryDx=0;entryDy=0;strokeColor=default;align=center;verticalAlign=middle;fontFamily=Helvetica;fontSize=11;fontColor=default;labelBackgroundColor=default;endArrow=none;endFill=0;" parent="1" source="ljLbS3r0QzYFnTC3O5jr-31" target="ljLbS3r0QzYFnTC3O5jr-29" edge="1">
          <mxGeometry relative="1" as="geometry" />
        </mxCell>
        <mxCell id="ljLbS3r0QzYFnTC3O5jr-31" value="classid" style="ellipse;whiteSpace=wrap;html=1;fillColor=#dae8fc;strokeColor=#6c8ebf;" parent="1" vertex="1">
          <mxGeometry x="1320" y="740" width="90" height="50" as="geometry" />
        </mxCell>
        <mxCell id="ljLbS3r0QzYFnTC3O5jr-79" style="edgeStyle=none;shape=connector;rounded=0;orthogonalLoop=1;jettySize=auto;html=1;exitX=0;exitY=0.5;exitDx=0;exitDy=0;entryX=1;entryY=0.5;entryDx=0;entryDy=0;strokeColor=default;align=center;verticalAlign=middle;fontFamily=Helvetica;fontSize=11;fontColor=default;labelBackgroundColor=default;endArrow=none;endFill=0;" parent="1" source="ljLbS3r0QzYFnTC3O5jr-32" target="ljLbS3r0QzYFnTC3O5jr-29" edge="1">
          <mxGeometry relative="1" as="geometry" />
        </mxCell>
        <mxCell id="ljLbS3r0QzYFnTC3O5jr-32" value="instanceid" style="ellipse;whiteSpace=wrap;html=1;fillColor=#dae8fc;strokeColor=#6c8ebf;" parent="1" vertex="1">
          <mxGeometry x="1420" y="855" width="90" height="50" as="geometry" />
        </mxCell>
        <mxCell id="ljLbS3r0QzYFnTC3O5jr-81" style="edgeStyle=none;shape=connector;rounded=0;orthogonalLoop=1;jettySize=auto;html=1;exitX=0;exitY=0;exitDx=0;exitDy=0;entryX=0.75;entryY=1;entryDx=0;entryDy=0;strokeColor=default;align=center;verticalAlign=middle;fontFamily=Helvetica;fontSize=11;fontColor=default;labelBackgroundColor=default;endArrow=none;endFill=0;" parent="1" source="ljLbS3r0QzYFnTC3O5jr-33" target="ljLbS3r0QzYFnTC3O5jr-29" edge="1">
          <mxGeometry relative="1" as="geometry" />
        </mxCell>
        <mxCell id="ljLbS3r0QzYFnTC3O5jr-33" value="background_color" style="ellipse;whiteSpace=wrap;html=1;fillColor=#dae8fc;strokeColor=#6c8ebf;" parent="1" vertex="1">
          <mxGeometry x="1302.5" y="1034" width="125" height="50" as="geometry" />
        </mxCell>
        <mxCell id="ljLbS3r0QzYFnTC3O5jr-82" style="edgeStyle=none;shape=connector;rounded=0;orthogonalLoop=1;jettySize=auto;html=1;exitX=0;exitY=0;exitDx=0;exitDy=0;entryX=1;entryY=1;entryDx=0;entryDy=0;strokeColor=default;align=center;verticalAlign=middle;fontFamily=Helvetica;fontSize=11;fontColor=default;labelBackgroundColor=default;endArrow=none;endFill=0;" parent="1" source="ljLbS3r0QzYFnTC3O5jr-34" target="ljLbS3r0QzYFnTC3O5jr-29" edge="1">
          <mxGeometry relative="1" as="geometry" />
        </mxCell>
        <mxCell id="ljLbS3r0QzYFnTC3O5jr-34" value="icon_url" style="ellipse;whiteSpace=wrap;html=1;fillColor=#dae8fc;strokeColor=#6c8ebf;" parent="1" vertex="1">
          <mxGeometry x="1380" y="975" width="90" height="50" as="geometry" />
        </mxCell>
        <mxCell id="ljLbS3r0QzYFnTC3O5jr-80" style="edgeStyle=none;shape=connector;rounded=0;orthogonalLoop=1;jettySize=auto;html=1;exitX=0.5;exitY=0;exitDx=0;exitDy=0;strokeColor=default;align=center;verticalAlign=middle;fontFamily=Helvetica;fontSize=11;fontColor=default;labelBackgroundColor=default;endArrow=none;endFill=0;entryX=0.5;entryY=1;entryDx=0;entryDy=0;" parent="1" source="ljLbS3r0QzYFnTC3O5jr-35" target="ljLbS3r0QzYFnTC3O5jr-29" edge="1">
          <mxGeometry relative="1" as="geometry">
            <mxPoint x="1270" y="965" as="targetPoint" />
          </mxGeometry>
        </mxCell>
        <mxCell id="ljLbS3r0QzYFnTC3O5jr-35" value="tradable" style="ellipse;whiteSpace=wrap;html=1;fillColor=#dae8fc;strokeColor=#6c8ebf;" parent="1" vertex="1">
          <mxGeometry x="1227" y="1075" width="90" height="50" as="geometry" />
        </mxCell>
        <mxCell id="ljLbS3r0QzYFnTC3O5jr-89" style="edgeStyle=none;shape=connector;rounded=0;orthogonalLoop=1;jettySize=auto;html=1;exitX=0.5;exitY=0;exitDx=0;exitDy=0;entryX=0.25;entryY=1;entryDx=0;entryDy=0;strokeColor=default;align=center;verticalAlign=middle;fontFamily=Helvetica;fontSize=11;fontColor=default;labelBackgroundColor=default;endArrow=none;endFill=0;" parent="1" source="ljLbS3r0QzYFnTC3O5jr-36" target="ljLbS3r0QzYFnTC3O5jr-29" edge="1">
          <mxGeometry relative="1" as="geometry" />
        </mxCell>
        <mxCell id="ljLbS3r0QzYFnTC3O5jr-36" value="name" style="ellipse;whiteSpace=wrap;html=1;fillColor=#dae8fc;strokeColor=#6c8ebf;" parent="1" vertex="1">
          <mxGeometry x="1150" y="1025" width="90" height="50" as="geometry" />
        </mxCell>
        <mxCell id="ljLbS3r0QzYFnTC3O5jr-88" style="edgeStyle=none;shape=connector;rounded=0;orthogonalLoop=1;jettySize=auto;html=1;exitX=1;exitY=0.5;exitDx=0;exitDy=0;entryX=0;entryY=1;entryDx=0;entryDy=0;strokeColor=default;align=center;verticalAlign=middle;fontFamily=Helvetica;fontSize=11;fontColor=default;labelBackgroundColor=default;endArrow=none;endFill=0;" parent="1" source="ljLbS3r0QzYFnTC3O5jr-37" target="ljLbS3r0QzYFnTC3O5jr-29" edge="1">
          <mxGeometry relative="1" as="geometry" />
        </mxCell>
        <mxCell id="ljLbS3r0QzYFnTC3O5jr-37" value="name_color" style="ellipse;whiteSpace=wrap;html=1;fillColor=#dae8fc;strokeColor=#6c8ebf;" parent="1" vertex="1">
          <mxGeometry x="1080" y="970" width="90" height="50" as="geometry" />
        </mxCell>
        <mxCell id="ljLbS3r0QzYFnTC3O5jr-86" style="edgeStyle=none;shape=connector;rounded=0;orthogonalLoop=1;jettySize=auto;html=1;exitX=1;exitY=1;exitDx=0;exitDy=0;entryX=0.25;entryY=0;entryDx=0;entryDy=0;strokeColor=default;align=center;verticalAlign=middle;fontFamily=Helvetica;fontSize=11;fontColor=default;labelBackgroundColor=default;endArrow=none;endFill=0;" parent="1" source="ljLbS3r0QzYFnTC3O5jr-38" target="ljLbS3r0QzYFnTC3O5jr-29" edge="1">
          <mxGeometry relative="1" as="geometry" />
        </mxCell>
        <mxCell id="ljLbS3r0QzYFnTC3O5jr-38" value="type" style="ellipse;whiteSpace=wrap;html=1;fillColor=#dae8fc;strokeColor=#6c8ebf;" parent="1" vertex="1">
          <mxGeometry x="1137" y="750" width="90" height="50" as="geometry" />
        </mxCell>
        <mxCell id="ljLbS3r0QzYFnTC3O5jr-83" style="edgeStyle=none;shape=connector;rounded=0;orthogonalLoop=1;jettySize=auto;html=1;exitX=0;exitY=0.5;exitDx=0;exitDy=0;entryX=1;entryY=0.75;entryDx=0;entryDy=0;strokeColor=default;align=center;verticalAlign=middle;fontFamily=Helvetica;fontSize=11;fontColor=default;labelBackgroundColor=default;endArrow=none;endFill=0;" parent="1" source="ljLbS3r0QzYFnTC3O5jr-39" target="ljLbS3r0QzYFnTC3O5jr-29" edge="1">
          <mxGeometry relative="1" as="geometry" />
        </mxCell>
        <mxCell id="ljLbS3r0QzYFnTC3O5jr-39" value="market_name" style="ellipse;whiteSpace=wrap;html=1;fillColor=#dae8fc;strokeColor=#6c8ebf;" parent="1" vertex="1">
          <mxGeometry x="1420" y="920" width="90" height="50" as="geometry" />
        </mxCell>
        <mxCell id="ljLbS3r0QzYFnTC3O5jr-84" style="edgeStyle=none;shape=connector;rounded=0;orthogonalLoop=1;jettySize=auto;html=1;exitX=0;exitY=1;exitDx=0;exitDy=0;entryX=1;entryY=0.25;entryDx=0;entryDy=0;strokeColor=default;align=center;verticalAlign=middle;fontFamily=Helvetica;fontSize=11;fontColor=default;labelBackgroundColor=default;endArrow=none;endFill=0;" parent="1" source="ljLbS3r0QzYFnTC3O5jr-40" target="ljLbS3r0QzYFnTC3O5jr-29" edge="1">
          <mxGeometry relative="1" as="geometry" />
        </mxCell>
        <mxCell id="ljLbS3r0QzYFnTC3O5jr-40" value="market_hash_name" style="ellipse;whiteSpace=wrap;html=1;fillColor=#dae8fc;strokeColor=#6c8ebf;" parent="1" vertex="1">
          <mxGeometry x="1380" y="790" width="120" height="50" as="geometry" />
        </mxCell>
        <mxCell id="ljLbS3r0QzYFnTC3O5jr-87" style="edgeStyle=none;shape=connector;rounded=0;orthogonalLoop=1;jettySize=auto;html=1;exitX=1;exitY=0.5;exitDx=0;exitDy=0;entryX=0;entryY=0.75;entryDx=0;entryDy=0;strokeColor=default;align=center;verticalAlign=middle;fontFamily=Helvetica;fontSize=11;fontColor=default;labelBackgroundColor=default;endArrow=none;endFill=0;" parent="1" source="ljLbS3r0QzYFnTC3O5jr-41" target="ljLbS3r0QzYFnTC3O5jr-29" edge="1">
          <mxGeometry relative="1" as="geometry" />
        </mxCell>
        <mxCell id="ljLbS3r0QzYFnTC3O5jr-41" value="commodity" style="ellipse;whiteSpace=wrap;html=1;fillColor=#dae8fc;strokeColor=#6c8ebf;" parent="1" vertex="1">
          <mxGeometry x="1080" y="900" width="90" height="50" as="geometry" />
        </mxCell>
        <mxCell id="ljLbS3r0QzYFnTC3O5jr-42" value="&lt;h1 class=&quot;heading-element&quot;&gt;GET /market/search/render&lt;/h1&gt;" style="text;html=1;align=center;verticalAlign=middle;whiteSpace=wrap;rounded=0;fontFamily=Helvetica;fontSize=12;fontColor=default;fontStyle=0;labelBorderColor=none;labelBackgroundColor=none;" parent="1" vertex="1">
          <mxGeometry x="901" y="255" width="340" height="30" as="geometry" />
        </mxCell>
        <mxCell id="ljLbS3r0QzYFnTC3O5jr-43" style="edgeStyle=orthogonalEdgeStyle;shape=connector;curved=0;rounded=1;orthogonalLoop=1;jettySize=auto;html=1;exitX=0.5;exitY=1;exitDx=0;exitDy=0;entryX=0.5;entryY=0;entryDx=0;entryDy=0;strokeColor=default;align=center;verticalAlign=middle;fontFamily=Helvetica;fontSize=12;fontColor=default;fontStyle=0;labelBorderColor=none;labelBackgroundColor=default;endArrow=none;endFill=0;" parent="1" source="ljLbS3r0QzYFnTC3O5jr-1" target="ljLbS3r0QzYFnTC3O5jr-45" edge="1">
          <mxGeometry relative="1" as="geometry">
            <mxPoint x="775" y="575" as="sourcePoint" />
          </mxGeometry>
        </mxCell>
        <mxCell id="ljLbS3r0QzYFnTC3O5jr-44" style="edgeStyle=orthogonalEdgeStyle;shape=connector;curved=0;rounded=1;orthogonalLoop=1;jettySize=auto;html=1;exitX=0.5;exitY=1;exitDx=0;exitDy=0;entryX=0.5;entryY=0;entryDx=0;entryDy=0;strokeColor=default;align=center;verticalAlign=middle;fontFamily=Helvetica;fontSize=12;fontColor=default;fontStyle=0;labelBorderColor=none;labelBackgroundColor=default;endArrow=none;endFill=0;" parent="1" source="ljLbS3r0QzYFnTC3O5jr-45" target="ljLbS3r0QzYFnTC3O5jr-19" edge="1">
          <mxGeometry relative="1" as="geometry">
            <mxPoint x="775" y="845" as="targetPoint" />
            <mxPoint x="775" y="765" as="sourcePoint" />
          </mxGeometry>
        </mxCell>
        <mxCell id="ljLbS3r0QzYFnTC3O5jr-45" value="has_item" style="rhombus;whiteSpace=wrap;html=1;rounded=0;shadow=0;glass=0;strokeColor=#d79b00;align=center;verticalAlign=middle;spacingLeft=4;spacingRight=4;fontFamily=Helvetica;fontSize=12;labelBorderColor=none;fillColor=#ffe6cc;" parent="1" vertex="1">
          <mxGeometry x="710" y="655" width="130" height="80" as="geometry" />
        </mxCell>
        <mxCell id="ljLbS3r0QzYFnTC3O5jr-46" value="(0, *)" style="text;html=1;align=center;verticalAlign=middle;whiteSpace=wrap;rounded=0;fontFamily=Helvetica;fontSize=12;fontColor=default;fontStyle=0;labelBorderColor=none;labelBackgroundColor=default;" parent="1" vertex="1">
          <mxGeometry x="775" y="625" width="60" height="30" as="geometry" />
        </mxCell>
        <mxCell id="ljLbS3r0QzYFnTC3O5jr-47" value="(1, 1)" style="text;html=1;align=center;verticalAlign=middle;whiteSpace=wrap;rounded=0;fontFamily=Helvetica;fontSize=12;fontColor=default;fontStyle=0;labelBorderColor=none;labelBackgroundColor=default;" parent="1" vertex="1">
          <mxGeometry x="775" y="737.5" width="60" height="30" as="geometry" />
        </mxCell>
        <mxCell id="ljLbS3r0QzYFnTC3O5jr-61" style="edgeStyle=orthogonalEdgeStyle;rounded=1;orthogonalLoop=1;jettySize=auto;html=1;exitX=0;exitY=0.5;exitDx=0;exitDy=0;entryX=1;entryY=0.5;entryDx=0;entryDy=0;fontFamily=Helvetica;fontSize=12;fontColor=default;fontStyle=0;labelBorderColor=none;curved=0;endArrow=none;endFill=0;" parent="1" source="ljLbS3r0QzYFnTC3O5jr-63" target="ljLbS3r0QzYFnTC3O5jr-1" edge="1">
          <mxGeometry relative="1" as="geometry">
            <mxPoint x="843" y="545" as="targetPoint" />
          </mxGeometry>
        </mxCell>
        <mxCell id="ljLbS3r0QzYFnTC3O5jr-62" style="edgeStyle=orthogonalEdgeStyle;shape=connector;curved=0;rounded=1;orthogonalLoop=1;jettySize=auto;html=1;exitX=1;exitY=0.5;exitDx=0;exitDy=0;strokeColor=default;align=center;verticalAlign=middle;fontFamily=Helvetica;fontSize=12;fontColor=default;fontStyle=0;labelBorderColor=none;labelBackgroundColor=default;endArrow=none;endFill=0;entryX=0;entryY=0.5;entryDx=0;entryDy=0;" parent="1" source="ljLbS3r0QzYFnTC3O5jr-63" target="ljLbS3r0QzYFnTC3O5jr-6" edge="1">
          <mxGeometry relative="1" as="geometry">
            <mxPoint x="1210" y="545" as="targetPoint" />
          </mxGeometry>
        </mxCell>
        <mxCell id="ljLbS3r0QzYFnTC3O5jr-63" value="has_searchdata" style="rhombus;whiteSpace=wrap;html=1;rounded=0;shadow=0;glass=0;strokeColor=#d79b00;align=center;verticalAlign=middle;spacingLeft=4;spacingRight=4;fontFamily=Helvetica;fontSize=12;labelBorderColor=none;fillColor=#ffe6cc;" parent="1" vertex="1">
          <mxGeometry x="953" y="505" width="130" height="80" as="geometry" />
        </mxCell>
        <mxCell id="ljLbS3r0QzYFnTC3O5jr-64" value="(1, 1)" style="text;html=1;align=center;verticalAlign=middle;whiteSpace=wrap;rounded=0;fontFamily=Helvetica;fontSize=12;fontColor=default;fontStyle=0;labelBorderColor=none;labelBackgroundColor=default;" parent="1" vertex="1">
          <mxGeometry x="893" y="515" width="60" height="30" as="geometry" />
        </mxCell>
        <mxCell id="ljLbS3r0QzYFnTC3O5jr-65" value="(1, 1)" style="text;html=1;align=center;verticalAlign=middle;whiteSpace=wrap;rounded=0;fontFamily=Helvetica;fontSize=12;fontColor=default;fontStyle=0;labelBorderColor=none;labelBackgroundColor=default;" parent="1" vertex="1">
          <mxGeometry x="1083" y="515" width="60" height="30" as="geometry" />
        </mxCell>
        <mxCell id="ljLbS3r0QzYFnTC3O5jr-73" style="edgeStyle=orthogonalEdgeStyle;shape=connector;curved=0;rounded=1;orthogonalLoop=1;jettySize=auto;html=1;exitX=1;exitY=0.5;exitDx=0;exitDy=0;entryX=0;entryY=0.5;entryDx=0;entryDy=0;strokeColor=default;align=center;verticalAlign=middle;fontFamily=Helvetica;fontSize=12;fontColor=default;fontStyle=0;labelBorderColor=none;labelBackgroundColor=default;endArrow=none;endFill=0;" parent="1" source="ljLbS3r0QzYFnTC3O5jr-19" target="ljLbS3r0QzYFnTC3O5jr-75" edge="1">
          <mxGeometry relative="1" as="geometry">
            <mxPoint x="840" y="880" as="sourcePoint" />
          </mxGeometry>
        </mxCell>
        <mxCell id="ljLbS3r0QzYFnTC3O5jr-74" style="edgeStyle=orthogonalEdgeStyle;shape=connector;curved=0;rounded=1;orthogonalLoop=1;jettySize=auto;html=1;exitX=1;exitY=0.5;exitDx=0;exitDy=0;entryX=0;entryY=0.5;entryDx=0;entryDy=0;strokeColor=default;align=center;verticalAlign=middle;fontFamily=Helvetica;fontSize=12;fontColor=default;fontStyle=0;labelBorderColor=none;labelBackgroundColor=default;endArrow=none;endFill=0;" parent="1" source="ljLbS3r0QzYFnTC3O5jr-75" target="ljLbS3r0QzYFnTC3O5jr-29" edge="1">
          <mxGeometry relative="1" as="geometry">
            <mxPoint x="1207" y="880" as="targetPoint" />
          </mxGeometry>
        </mxCell>
        <mxCell id="ljLbS3r0QzYFnTC3O5jr-75" value="has_description" style="rhombus;whiteSpace=wrap;html=1;rounded=0;shadow=0;glass=0;strokeColor=#d79b00;align=center;verticalAlign=middle;spacingLeft=4;spacingRight=4;fontFamily=Helvetica;fontSize=12;labelBorderColor=none;fillColor=#ffe6cc;" parent="1" vertex="1">
          <mxGeometry x="950" y="840" width="130" height="80" as="geometry" />
        </mxCell>
        <mxCell id="ljLbS3r0QzYFnTC3O5jr-76" value="(1, 1)" style="text;html=1;align=center;verticalAlign=middle;whiteSpace=wrap;rounded=0;fontFamily=Helvetica;fontSize=12;fontColor=default;fontStyle=0;labelBorderColor=none;labelBackgroundColor=default;" parent="1" vertex="1">
          <mxGeometry x="893" y="850" width="60" height="30" as="geometry" />
        </mxCell>
        <mxCell id="ljLbS3r0QzYFnTC3O5jr-77" value="(1, 1)" style="text;html=1;align=center;verticalAlign=middle;whiteSpace=wrap;rounded=0;fontFamily=Helvetica;fontSize=12;fontColor=default;fontStyle=0;labelBorderColor=none;labelBackgroundColor=default;" parent="1" vertex="1">
          <mxGeometry x="1083" y="850" width="60" height="30" as="geometry" />
        </mxCell>
        <mxCell id="ljLbS3r0QzYFnTC3O5jr-90" value="PriceHistory&lt;span style=&quot;color: rgba(0, 0, 0, 0); font-family: monospace; font-size: 0px; text-align: start; text-wrap: nowrap;&quot;&gt;%3CmxGraphModel%3E%3Croot%3E%3CmxCell%20id%3D%220%22%2F%3E%3CmxCell%20id%3D%221%22%20parent%3D%220%22%2F%3E%3CmxCell%20id%3D%222%22%20value%3D%22Page%22%20style%3D%22rounded%3D0%3BwhiteSpace%3Dwrap%3Bhtml%3D1%3BfillColor%3D%23d5e8d4%3BstrokeColor%3D%2382b366%3B%22%20vertex%3D%221%22%20parent%3D%221%22%3E%3CmxGeometry%20x%3D%22-1035%22%20y%3D%22680%22%20width%3D%22120%22%20height%3D%2260%22%20as%3D%22geometry%22%2F%3E%3C%2FmxCell%3E%3CmxCell%20id%3D%223%22%20value%3D%22%26lt%3Bspan%20style%3D%26quot%3Bcolor%3A%20rgb(0%2C%200%2C%200)%3B%20font-family%3A%20Helvetica%3B%20font-size%3A%2012px%3B%20font-style%3A%20normal%3B%20font-variant-ligatures%3A%20normal%3B%20font-variant-caps%3A%20normal%3B%20font-weight%3A%20400%3B%20letter-spacing%3A%20normal%3B%20orphans%3A%202%3B%20text-align%3A%20center%3B%20text-indent%3A%200px%3B%20text-transform%3A%20none%3B%20widows%3A%202%3B%20word-spacing%3A%200px%3B%20-webkit-text-stroke-width%3A%200px%3B%20white-space%3A%20normal%3B%20text-decoration-thickness%3A%20initial%3B%20text-decoration-style%3A%20initial%3B%20text-decoration-color%3A%20initial%3B%20float%3A%20none%3B%20display%3A%20inline%20!important%3B%26quot%3B%26gt%3Bsuccess%26lt%3B%2Fspan%26gt%3B%22%20style%3D%22ellipse%3BwhiteSpace%3Dwrap%3Bhtml%3D1%3BfillColor%3D%23dae8fc%3BstrokeColor%3D%236c8ebf%3BlabelBackgroundColor%3Dnone%3B%22%20vertex%3D%221%22%20parent%3D%221%22%3E%3CmxGeometry%20x%3D%22-1020%22%20y%3D%22545%22%20width%3D%2290%22%20height%3D%2250%22%20as%3D%22geometry%22%2F%3E%3C%2FmxCell%3E%3C%2Froot%3E%3C%2FmxGraphModel%3E&lt;/span&gt;" style="rounded=0;whiteSpace=wrap;html=1;fillColor=#d5e8d4;strokeColor=#82b366;" parent="1" vertex="1">
          <mxGeometry x="1860" y="475" width="120" height="60" as="geometry" />
        </mxCell>
        <mxCell id="ljLbS3r0QzYFnTC3O5jr-98" style="edgeStyle=none;shape=connector;rounded=0;orthogonalLoop=1;jettySize=auto;html=1;exitX=0.5;exitY=1;exitDx=0;exitDy=0;entryX=0.25;entryY=0;entryDx=0;entryDy=0;strokeColor=default;align=center;verticalAlign=middle;fontFamily=Helvetica;fontSize=11;fontColor=default;labelBackgroundColor=default;endArrow=none;endFill=0;" parent="1" source="ljLbS3r0QzYFnTC3O5jr-91" target="ljLbS3r0QzYFnTC3O5jr-90" edge="1">
          <mxGeometry relative="1" as="geometry" />
        </mxCell>
        <mxCell id="ljLbS3r0QzYFnTC3O5jr-91" value="&lt;span style=&quot;color: rgb(0, 0, 0); font-family: Helvetica; font-size: 12px; font-style: normal; font-variant-ligatures: normal; font-variant-caps: normal; font-weight: 400; letter-spacing: normal; orphans: 2; text-align: center; text-indent: 0px; text-transform: none; widows: 2; word-spacing: 0px; -webkit-text-stroke-width: 0px; white-space: normal; text-decoration-thickness: initial; text-decoration-style: initial; text-decoration-color: initial; float: none; display: inline !important;&quot;&gt;success&lt;/span&gt;" style="ellipse;whiteSpace=wrap;html=1;fillColor=#dae8fc;strokeColor=#6c8ebf;labelBackgroundColor=none;" parent="1" vertex="1">
          <mxGeometry x="1790" y="390" width="90" height="50" as="geometry" />
        </mxCell>
        <mxCell id="ljLbS3r0QzYFnTC3O5jr-106" style="edgeStyle=none;shape=connector;rounded=0;orthogonalLoop=1;jettySize=auto;html=1;exitX=0.5;exitY=1;exitDx=0;exitDy=0;entryX=0.5;entryY=0;entryDx=0;entryDy=0;strokeColor=default;align=center;verticalAlign=middle;fontFamily=Helvetica;fontSize=11;fontColor=default;labelBackgroundColor=default;endArrow=none;endFill=0;" parent="1" source="ljLbS3r0QzYFnTC3O5jr-92" target="ljLbS3r0QzYFnTC3O5jr-96" edge="1">
          <mxGeometry relative="1" as="geometry" />
        </mxCell>
        <mxCell id="ljLbS3r0QzYFnTC3O5jr-107" style="edgeStyle=none;shape=connector;rounded=0;orthogonalLoop=1;jettySize=auto;html=1;exitX=0.75;exitY=1;exitDx=0;exitDy=0;entryX=0.5;entryY=0;entryDx=0;entryDy=0;strokeColor=default;align=center;verticalAlign=middle;fontFamily=Helvetica;fontSize=11;fontColor=default;labelBackgroundColor=default;endArrow=none;endFill=0;" parent="1" source="ljLbS3r0QzYFnTC3O5jr-92" target="ljLbS3r0QzYFnTC3O5jr-95" edge="1">
          <mxGeometry relative="1" as="geometry" />
        </mxCell>
        <mxCell id="ljLbS3r0QzYFnTC3O5jr-108" style="edgeStyle=none;shape=connector;rounded=0;orthogonalLoop=1;jettySize=auto;html=1;exitX=0.25;exitY=1;exitDx=0;exitDy=0;entryX=0.5;entryY=0;entryDx=0;entryDy=0;strokeColor=default;align=center;verticalAlign=middle;fontFamily=Helvetica;fontSize=11;fontColor=default;labelBackgroundColor=default;endArrow=none;endFill=0;" parent="1" source="ljLbS3r0QzYFnTC3O5jr-92" target="ljLbS3r0QzYFnTC3O5jr-97" edge="1">
          <mxGeometry relative="1" as="geometry" />
        </mxCell>
        <mxCell id="ljLbS3r0QzYFnTC3O5jr-92" value="Price" style="rounded=0;whiteSpace=wrap;html=1;fillColor=#d5e8d4;strokeColor=#82b366;" parent="1" vertex="1">
          <mxGeometry x="1860" y="830" width="120" height="60" as="geometry" />
        </mxCell>
        <mxCell id="ljLbS3r0QzYFnTC3O5jr-99" style="edgeStyle=none;shape=connector;rounded=0;orthogonalLoop=1;jettySize=auto;html=1;exitX=0.5;exitY=1;exitDx=0;exitDy=0;entryX=0.5;entryY=0;entryDx=0;entryDy=0;strokeColor=default;align=center;verticalAlign=middle;fontFamily=Helvetica;fontSize=11;fontColor=default;labelBackgroundColor=default;endArrow=none;endFill=0;" parent="1" source="ljLbS3r0QzYFnTC3O5jr-93" target="ljLbS3r0QzYFnTC3O5jr-90" edge="1">
          <mxGeometry relative="1" as="geometry" />
        </mxCell>
        <mxCell id="ljLbS3r0QzYFnTC3O5jr-93" value="&lt;span style=&quot;color: rgb(0, 0, 0); font-family: Helvetica; font-size: 12px; font-style: normal; font-variant-ligatures: normal; font-variant-caps: normal; font-weight: 400; letter-spacing: normal; orphans: 2; text-align: center; text-indent: 0px; text-transform: none; widows: 2; word-spacing: 0px; -webkit-text-stroke-width: 0px; white-space: normal; text-decoration-thickness: initial; text-decoration-style: initial; text-decoration-color: initial; float: none; display: inline !important;&quot;&gt;price_prefix&lt;/span&gt;" style="ellipse;whiteSpace=wrap;html=1;fillColor=#dae8fc;strokeColor=#6c8ebf;labelBackgroundColor=none;" parent="1" vertex="1">
          <mxGeometry x="1875" y="340" width="90" height="50" as="geometry" />
        </mxCell>
        <mxCell id="ljLbS3r0QzYFnTC3O5jr-100" style="edgeStyle=none;shape=connector;rounded=0;orthogonalLoop=1;jettySize=auto;html=1;exitX=0.5;exitY=1;exitDx=0;exitDy=0;entryX=0.75;entryY=0;entryDx=0;entryDy=0;strokeColor=default;align=center;verticalAlign=middle;fontFamily=Helvetica;fontSize=11;fontColor=default;labelBackgroundColor=default;endArrow=none;endFill=0;" parent="1" source="ljLbS3r0QzYFnTC3O5jr-94" target="ljLbS3r0QzYFnTC3O5jr-90" edge="1">
          <mxGeometry relative="1" as="geometry" />
        </mxCell>
        <mxCell id="ljLbS3r0QzYFnTC3O5jr-94" value="&lt;span style=&quot;color: rgb(0, 0, 0); font-family: Helvetica; font-size: 12px; font-style: normal; font-variant-ligatures: normal; font-variant-caps: normal; font-weight: 400; letter-spacing: normal; orphans: 2; text-align: center; text-indent: 0px; text-transform: none; widows: 2; word-spacing: 0px; -webkit-text-stroke-width: 0px; white-space: normal; text-decoration-thickness: initial; text-decoration-style: initial; text-decoration-color: initial; float: none; display: inline !important;&quot;&gt;price_suffix&lt;/span&gt;" style="ellipse;whiteSpace=wrap;html=1;fillColor=#dae8fc;strokeColor=#6c8ebf;labelBackgroundColor=none;" parent="1" vertex="1">
          <mxGeometry x="1965" y="390" width="90" height="50" as="geometry" />
        </mxCell>
        <mxCell id="ljLbS3r0QzYFnTC3O5jr-95" value="&lt;span style=&quot;color: rgb(0, 0, 0); font-family: Helvetica; font-size: 12px; font-style: normal; font-variant-ligatures: normal; font-variant-caps: normal; font-weight: 400; letter-spacing: normal; orphans: 2; text-align: center; text-indent: 0px; text-transform: none; widows: 2; word-spacing: 0px; -webkit-text-stroke-width: 0px; white-space: normal; text-decoration-thickness: initial; text-decoration-style: initial; text-decoration-color: initial; float: none; display: inline !important;&quot;&gt;date&lt;/span&gt;" style="ellipse;whiteSpace=wrap;html=1;fillColor=#dae8fc;strokeColor=#6c8ebf;labelBackgroundColor=none;" parent="1" vertex="1">
          <mxGeometry x="1965" y="930" width="90" height="50" as="geometry" />
        </mxCell>
        <mxCell id="ljLbS3r0QzYFnTC3O5jr-96" value="&lt;span style=&quot;color: rgb(0, 0, 0); font-family: Helvetica; font-size: 12px; font-style: normal; font-variant-ligatures: normal; font-variant-caps: normal; font-weight: 400; letter-spacing: normal; orphans: 2; text-align: center; text-indent: 0px; text-transform: none; widows: 2; word-spacing: 0px; -webkit-text-stroke-width: 0px; white-space: normal; text-decoration-thickness: initial; text-decoration-style: initial; text-decoration-color: initial; float: none; display: inline !important;&quot;&gt;price&lt;/span&gt;" style="ellipse;whiteSpace=wrap;html=1;fillColor=#dae8fc;strokeColor=#6c8ebf;labelBackgroundColor=none;" parent="1" vertex="1">
          <mxGeometry x="1875" y="965" width="90" height="50" as="geometry" />
        </mxCell>
        <mxCell id="ljLbS3r0QzYFnTC3O5jr-97" value="&lt;span style=&quot;color: rgb(0, 0, 0); font-family: Helvetica; font-size: 12px; font-style: normal; font-variant-ligatures: normal; font-variant-caps: normal; font-weight: 400; letter-spacing: normal; orphans: 2; text-align: center; text-indent: 0px; text-transform: none; widows: 2; word-spacing: 0px; -webkit-text-stroke-width: 0px; white-space: normal; text-decoration-thickness: initial; text-decoration-style: initial; text-decoration-color: initial; float: none; display: inline !important;&quot;&gt;amount_sold&lt;/span&gt;" style="ellipse;whiteSpace=wrap;html=1;fillColor=#dae8fc;strokeColor=#6c8ebf;labelBackgroundColor=none;" parent="1" vertex="1">
          <mxGeometry x="1780" y="930" width="90" height="50" as="geometry" />
        </mxCell>
        <mxCell id="ljLbS3r0QzYFnTC3O5jr-101" style="edgeStyle=orthogonalEdgeStyle;shape=connector;curved=0;rounded=1;orthogonalLoop=1;jettySize=auto;html=1;exitX=0.5;exitY=1;exitDx=0;exitDy=0;entryX=0.5;entryY=0;entryDx=0;entryDy=0;strokeColor=default;align=center;verticalAlign=middle;fontFamily=Helvetica;fontSize=12;fontColor=default;fontStyle=0;labelBorderColor=none;labelBackgroundColor=default;endArrow=none;endFill=0;" parent="1" source="ljLbS3r0QzYFnTC3O5jr-90" target="ljLbS3r0QzYFnTC3O5jr-103" edge="1">
          <mxGeometry relative="1" as="geometry">
            <mxPoint x="1920" y="550" as="sourcePoint" />
          </mxGeometry>
        </mxCell>
        <mxCell id="ljLbS3r0QzYFnTC3O5jr-102" style="edgeStyle=orthogonalEdgeStyle;shape=connector;curved=0;rounded=1;orthogonalLoop=1;jettySize=auto;html=1;exitX=0.5;exitY=1;exitDx=0;exitDy=0;entryX=0.5;entryY=0;entryDx=0;entryDy=0;strokeColor=default;align=center;verticalAlign=middle;fontFamily=Helvetica;fontSize=12;fontColor=default;fontStyle=0;labelBorderColor=none;labelBackgroundColor=default;endArrow=none;endFill=0;" parent="1" source="ljLbS3r0QzYFnTC3O5jr-103" target="ljLbS3r0QzYFnTC3O5jr-92" edge="1">
          <mxGeometry relative="1" as="geometry">
            <mxPoint x="1920" y="820" as="targetPoint" />
          </mxGeometry>
        </mxCell>
        <mxCell id="ljLbS3r0QzYFnTC3O5jr-103" value="has_prices" style="rhombus;whiteSpace=wrap;html=1;rounded=0;shadow=0;glass=0;strokeColor=#d79b00;align=center;verticalAlign=middle;spacingLeft=4;spacingRight=4;fontFamily=Helvetica;fontSize=12;fontStyle=0;labelBorderColor=none;labelBackgroundColor=none;fillColor=#ffe6cc;" parent="1" vertex="1">
          <mxGeometry x="1835" y="650" width="170" height="80" as="geometry" />
        </mxCell>
        <mxCell id="ljLbS3r0QzYFnTC3O5jr-104" value="(0, *)" style="text;html=1;align=center;verticalAlign=middle;whiteSpace=wrap;rounded=0;fontFamily=Helvetica;fontSize=12;fontColor=default;fontStyle=0;labelBorderColor=none;labelBackgroundColor=none;" parent="1" vertex="1">
          <mxGeometry x="1920" y="620" width="60" height="30" as="geometry" />
        </mxCell>
        <mxCell id="ljLbS3r0QzYFnTC3O5jr-105" value="(1, 1)" style="text;html=1;align=center;verticalAlign=middle;whiteSpace=wrap;rounded=0;fontFamily=Helvetica;fontSize=12;fontColor=default;fontStyle=0;labelBorderColor=none;labelBackgroundColor=none;" parent="1" vertex="1">
          <mxGeometry x="1920" y="730" width="60" height="30" as="geometry" />
        </mxCell>
        <mxCell id="ljLbS3r0QzYFnTC3O5jr-109" value="&lt;h1 class=&quot;heading-element&quot;&gt;GET /market/pricehistory/{hash_name}&lt;/h1&gt;" style="text;whiteSpace=wrap;html=1;fontFamily=Helvetica;fontSize=12;fontColor=default;fontStyle=0;labelBorderColor=none;labelBackgroundColor=none;" parent="1" vertex="1">
          <mxGeometry x="1690" y="230" width="460" height="80" as="geometry" />
        </mxCell>
        <mxCell id="q_65ye72RjT9QAtNMbLg-5" style="edgeStyle=orthogonalEdgeStyle;rounded=1;orthogonalLoop=1;jettySize=auto;html=1;exitX=1;exitY=0.5;exitDx=0;exitDy=0;entryX=1;entryY=0.5;entryDx=0;entryDy=0;endArrow=none;endFill=0;strokeColor=default;curved=0;" parent="1" source="q_65ye72RjT9QAtNMbLg-2" target="ljLbS3r0QzYFnTC3O5jr-90" edge="1">
          <mxGeometry relative="1" as="geometry">
            <Array as="points">
              <mxPoint x="2210" y="160" />
              <mxPoint x="2210" y="505" />
            </Array>
          </mxGeometry>
        </mxCell>
        <mxCell id="q_65ye72RjT9QAtNMbLg-2" value="has_price_history" style="rhombus;whiteSpace=wrap;html=1;rounded=0;shadow=0;glass=0;strokeColor=#d79b00;align=center;verticalAlign=middle;spacingLeft=4;spacingRight=4;fontFamily=Helvetica;fontSize=12;labelBorderColor=none;fillColor=#ffe6cc;" parent="1" vertex="1">
          <mxGeometry x="1332" y="120" width="130" height="80" as="geometry" />
        </mxCell>
        <mxCell id="q_65ye72RjT9QAtNMbLg-7" value="(1, 1)" style="text;html=1;align=center;verticalAlign=middle;whiteSpace=wrap;rounded=0;fontFamily=Helvetica;fontSize=12;fontColor=default;fontStyle=0;labelBorderColor=none;labelBackgroundColor=default;" parent="1" vertex="1">
          <mxGeometry x="1272" y="130" width="60" height="30" as="geometry" />
        </mxCell>
        <mxCell id="q_65ye72RjT9QAtNMbLg-8" value="(1, 1)" style="text;html=1;align=center;verticalAlign=middle;whiteSpace=wrap;rounded=0;fontFamily=Helvetica;fontSize=12;fontColor=default;fontStyle=0;labelBorderColor=none;labelBackgroundColor=default;" parent="1" vertex="1">
          <mxGeometry x="1462" y="130" width="60" height="30" as="geometry" />
        </mxCell>
        <mxCell id="XWLohQZj0Fo5sd6531q7-1" value="&lt;span style=&quot;color: rgb(0, 0, 0); font-family: Helvetica; font-size: 12px; font-style: normal; font-variant-ligatures: normal; font-variant-caps: normal; font-weight: 400; letter-spacing: normal; orphans: 2; text-align: center; text-indent: 0px; text-transform: none; widows: 2; word-spacing: 0px; -webkit-text-stroke-width: 0px; white-space: normal; float: none; display: inline !important;&quot;&gt;pageID&lt;/span&gt;" style="ellipse;whiteSpace=wrap;html=1;fillColor=#dae8fc;strokeColor=#6c8ebf;labelBackgroundColor=none;fontStyle=4" parent="1" vertex="1">
          <mxGeometry x="827" y="390" width="90" height="50" as="geometry" />
        </mxCell>
        <mxCell id="XWLohQZj0Fo5sd6531q7-2" style="edgeStyle=none;shape=connector;rounded=0;orthogonalLoop=1;jettySize=auto;html=1;exitX=0;exitY=1;exitDx=0;exitDy=0;entryX=0.75;entryY=0;entryDx=0;entryDy=0;strokeColor=default;align=center;verticalAlign=middle;fontFamily=Helvetica;fontSize=11;fontColor=default;labelBackgroundColor=default;endArrow=none;endFill=0;" parent="1" source="XWLohQZj0Fo5sd6531q7-1" target="ljLbS3r0QzYFnTC3O5jr-1" edge="1">
          <mxGeometry relative="1" as="geometry">
            <mxPoint x="717" y="438" as="sourcePoint" />
            <mxPoint x="755" y="525" as="targetPoint" />
          </mxGeometry>
        </mxCell>
        <mxCell id="XWLohQZj0Fo5sd6531q7-3" value="searchDataID" style="ellipse;whiteSpace=wrap;html=1;fillColor=#dae8fc;strokeColor=#6c8ebf;labelBackgroundColor=none;fontStyle=4" parent="1" vertex="1">
          <mxGeometry x="1122" y="405" width="90" height="50" as="geometry" />
        </mxCell>
        <mxCell id="XWLohQZj0Fo5sd6531q7-4" style="edgeStyle=none;shape=connector;rounded=0;orthogonalLoop=1;jettySize=auto;html=1;exitX=0.5;exitY=1;exitDx=0;exitDy=0;entryX=0.25;entryY=0;entryDx=0;entryDy=0;strokeColor=default;align=center;verticalAlign=middle;fontFamily=Helvetica;fontSize=11;fontColor=default;labelBackgroundColor=default;endArrow=none;endFill=0;" parent="1" source="XWLohQZj0Fo5sd6531q7-3" target="ljLbS3r0QzYFnTC3O5jr-6" edge="1">
          <mxGeometry relative="1" as="geometry">
            <mxPoint x="850" y="443" as="sourcePoint" />
            <mxPoint x="815" y="525" as="targetPoint" />
          </mxGeometry>
        </mxCell>
        <mxCell id="XWLohQZj0Fo5sd6531q7-5" value="itemID" style="ellipse;whiteSpace=wrap;html=1;fillColor=#dae8fc;strokeColor=#6c8ebf;fontStyle=4" parent="1" vertex="1">
          <mxGeometry x="835" y="765" width="90" height="50" as="geometry" />
        </mxCell>
        <mxCell id="XWLohQZj0Fo5sd6531q7-6" style="edgeStyle=none;shape=connector;rounded=0;orthogonalLoop=1;jettySize=auto;html=1;exitX=0;exitY=1;exitDx=0;exitDy=0;entryX=0.75;entryY=0;entryDx=0;entryDy=0;strokeColor=default;align=center;verticalAlign=middle;fontFamily=Helvetica;fontSize=11;fontColor=default;labelBackgroundColor=default;endArrow=none;endFill=0;" parent="1" source="XWLohQZj0Fo5sd6531q7-5" target="ljLbS3r0QzYFnTC3O5jr-19" edge="1">
          <mxGeometry relative="1" as="geometry">
            <mxPoint x="727" y="813" as="sourcePoint" />
            <mxPoint x="755" y="860" as="targetPoint" />
          </mxGeometry>
        </mxCell>
        <mxCell id="XWLohQZj0Fo5sd6531q7-7" value="assetDescriptionID" style="ellipse;whiteSpace=wrap;html=1;fillColor=#dae8fc;strokeColor=#6c8ebf;fontStyle=4" parent="1" vertex="1">
          <mxGeometry x="1020" y="790" width="130" height="50" as="geometry" />
        </mxCell>
        <mxCell id="XWLohQZj0Fo5sd6531q7-8" style="edgeStyle=none;shape=connector;rounded=0;orthogonalLoop=1;jettySize=auto;html=1;exitX=1;exitY=0.5;exitDx=0;exitDy=0;entryX=0;entryY=0;entryDx=0;entryDy=0;strokeColor=default;align=center;verticalAlign=middle;fontFamily=Helvetica;fontSize=11;fontColor=default;labelBackgroundColor=default;endArrow=none;endFill=0;" parent="1" source="XWLohQZj0Fo5sd6531q7-7" target="ljLbS3r0QzYFnTC3O5jr-29" edge="1">
          <mxGeometry relative="1" as="geometry">
            <mxPoint x="1224" y="803" as="sourcePoint" />
            <mxPoint x="1252" y="860" as="targetPoint" />
          </mxGeometry>
        </mxCell>
        <mxCell id="XWLohQZj0Fo5sd6531q7-9" value="&lt;span style=&quot;color: rgb(0, 0, 0); font-family: Helvetica; font-size: 12px; font-style: normal; font-variant-ligatures: normal; font-variant-caps: normal; font-weight: 400; letter-spacing: normal; orphans: 2; text-align: center; text-indent: 0px; text-transform: none; widows: 2; word-spacing: 0px; -webkit-text-stroke-width: 0px; white-space: normal; float: none; display: inline !important;&quot;&gt;priceID&lt;/span&gt;" style="ellipse;whiteSpace=wrap;html=1;fillColor=#dae8fc;strokeColor=#6c8ebf;labelBackgroundColor=none;fontStyle=4" parent="1" vertex="1">
          <mxGeometry x="2000" y="835" width="90" height="50" as="geometry" />
        </mxCell>
        <mxCell id="XWLohQZj0Fo5sd6531q7-10" style="edgeStyle=none;shape=connector;rounded=0;orthogonalLoop=1;jettySize=auto;html=1;exitX=1;exitY=0.5;exitDx=0;exitDy=0;entryX=0;entryY=0.5;entryDx=0;entryDy=0;strokeColor=default;align=center;verticalAlign=middle;fontFamily=Helvetica;fontSize=11;fontColor=default;labelBackgroundColor=default;endArrow=none;endFill=0;" parent="1" source="ljLbS3r0QzYFnTC3O5jr-92" target="XWLohQZj0Fo5sd6531q7-9" edge="1">
          <mxGeometry relative="1" as="geometry">
            <mxPoint x="1960" y="900" as="sourcePoint" />
            <mxPoint x="2020" y="940" as="targetPoint" />
          </mxGeometry>
        </mxCell>
        <mxCell id="XWLohQZj0Fo5sd6531q7-11" value="&lt;span style=&quot;color: rgb(0, 0, 0); font-family: Helvetica; font-size: 12px; font-style: normal; font-variant-ligatures: normal; font-variant-caps: normal; font-weight: 400; letter-spacing: normal; orphans: 2; text-align: center; text-indent: 0px; text-transform: none; widows: 2; word-spacing: 0px; -webkit-text-stroke-width: 0px; white-space: normal; float: none; display: inline !important;&quot;&gt;priceHistoryID&lt;/span&gt;" style="ellipse;whiteSpace=wrap;html=1;fillColor=#dae8fc;strokeColor=#6c8ebf;labelBackgroundColor=none;fontStyle=4" parent="1" vertex="1">
          <mxGeometry x="2000" y="525" width="90" height="50" as="geometry" />
        </mxCell>
        <mxCell id="XWLohQZj0Fo5sd6531q7-13" style="edgeStyle=none;shape=connector;rounded=0;orthogonalLoop=1;jettySize=auto;html=1;exitX=0;exitY=0.5;exitDx=0;exitDy=0;entryX=1;entryY=1;entryDx=0;entryDy=0;strokeColor=default;align=center;verticalAlign=middle;fontFamily=Helvetica;fontSize=11;fontColor=default;labelBackgroundColor=default;endArrow=none;endFill=0;" parent="1" source="XWLohQZj0Fo5sd6531q7-11" target="ljLbS3r0QzYFnTC3O5jr-90" edge="1">
          <mxGeometry relative="1" as="geometry">
            <mxPoint x="2020" y="450" as="sourcePoint" />
            <mxPoint x="1960" y="485" as="targetPoint" />
          </mxGeometry>
        </mxCell>
        <mxCell id="XWLohQZj0Fo5sd6531q7-14" value="&lt;span style=&quot;color: rgb(0, 0, 0); font-family: Helvetica; font-size: 12px; font-style: normal; font-variant-ligatures: normal; font-variant-caps: normal; font-weight: 400; letter-spacing: normal; orphans: 2; text-align: center; text-indent: 0px; text-transform: none; widows: 2; word-spacing: 0px; -webkit-text-stroke-width: 0px; white-space: normal; text-decoration-thickness: initial; text-decoration-style: initial; text-decoration-color: initial; float: none; display: inline !important;&quot;&gt;success&lt;/span&gt;" style="ellipse;whiteSpace=wrap;html=1;fillColor=#dae8fc;strokeColor=#6c8ebf;labelBackgroundColor=none;" parent="1" vertex="1">
          <mxGeometry x="1750" y="480" width="90" height="50" as="geometry" />
        </mxCell>
        <mxCell id="XWLohQZj0Fo5sd6531q7-16" style="edgeStyle=none;shape=connector;rounded=0;orthogonalLoop=1;jettySize=auto;html=1;exitX=0;exitY=0.5;exitDx=0;exitDy=0;entryX=1;entryY=0.5;entryDx=0;entryDy=0;strokeColor=default;align=center;verticalAlign=middle;fontFamily=Helvetica;fontSize=11;fontColor=default;labelBackgroundColor=default;endArrow=none;endFill=0;" parent="1" source="ljLbS3r0QzYFnTC3O5jr-90" target="XWLohQZj0Fo5sd6531q7-14" edge="1">
          <mxGeometry relative="1" as="geometry">
            <mxPoint x="2010" y="515" as="sourcePoint" />
            <mxPoint x="1990" y="515" as="targetPoint" />
          </mxGeometry>
        </mxCell>
      </root>
    </mxGraphModel>
  </diagram>
</mxfile>
